<svg width="20" height="20" viewBox="0 0 20 20" fill="none" xmlns="http://www.w3.org/2000/svg">
<g clip-path="url(#clip0_69_3486)">
<path d="M1.95314 15.2447C1.97484 10.4417 1.996 5.64562 2.01661 0.856461C2.0175 0.702332 2.06033 0.553369 2.1378 0.434992C2.21527 0.316614 2.32258 0.236158 2.44142 0.207353C3.8086 -0.155567 5.96355 -0.0643189 7.42677 0.651152C8.4572 1.12524 9.36044 1.96322 10.0309 3.06716C10.7229 2.01607 11.6216 1.21808 12.6351 0.754843C14.0169 0.0829229 16.1133 -0.0788358 17.6156 0.207353C17.7396 0.228772 17.8534 0.306369 17.9362 0.425947C18.019 0.545524 18.0652 0.699086 18.0664 0.858535V15.3048C18.0662 15.3924 18.0524 15.4791 18.0259 15.5599C17.9993 15.6407 17.9605 15.714 17.9117 15.7757C17.8628 15.8373 17.8049 15.8861 17.7413 15.9192C17.6776 15.9522 17.6094 15.969 17.5407 15.9684C17.5001 15.9677 17.4598 15.9615 17.4203 15.9498C16.1373 15.7377 14.8334 15.8929 13.6035 16.4039C12.6949 16.8355 11.8326 17.411 11.0368 18.1169C12.1558 17.6745 13.3222 17.4576 14.4938 17.474C15.9972 17.5045 17.4934 17.7466 18.9551 18.1957V3.07753H19.4775C19.6161 3.07753 19.749 3.14767 19.847 3.27251C19.945 3.39735 20 3.56667 20 3.74323V19.0667C20 19.2433 19.945 19.4126 19.847 19.5375C19.749 19.6623 19.6161 19.7324 19.4775 19.7324C19.4222 19.7319 19.3672 19.72 19.3148 19.6972C17.7403 19.1455 16.1183 18.8439 14.4857 18.7992C13.0429 18.776 11.6131 19.148 10.293 19.8901C10.2044 19.9618 10.1017 20 9.99676 20C9.89182 20 9.78906 19.9618 9.70053 19.8901C8.38045 19.1479 6.95059 18.7758 5.50782 18.7992C3.87892 18.8465 2.26081 19.1495 0.690114 19.7013C0.637691 19.7241 0.582739 19.736 0.527354 19.7366C0.458059 19.7374 0.389327 19.7207 0.32516 19.6873C0.260993 19.654 0.202674 19.6047 0.153597 19.5424C0.10452 19.48 0.0656664 19.4059 0.0392986 19.3242C0.0129308 19.2426 -0.000424518 19.155 1.02851e-05 19.0667V3.74323C1.02851e-05 3.56667 0.0550551 3.39735 0.153036 3.27251C0.251016 3.14767 0.383906 3.07753 0.522471 3.07753H1.04493V18.1957C2.50662 17.7466 4.00279 17.5045 5.5062 17.474C6.76215 17.4551 8.01167 17.7054 9.20249 18.2144C8.45028 17.4392 7.59306 16.846 6.67319 16.4641C5.53386 15.9871 3.79558 15.8274 2.52442 15.9664C2.45551 15.9749 2.38594 15.9659 2.31978 15.9399C2.25361 15.9139 2.19216 15.8714 2.13901 15.8148C2.08585 15.7583 2.04204 15.6889 2.01013 15.6106C1.97822 15.5323 1.95885 15.4467 1.95314 15.3587C1.95149 15.3207 1.95149 15.2827 1.95314 15.2447ZM11.9857 13.3554C11.9446 13.3944 11.8978 13.4222 11.8479 13.4372C11.7981 13.4521 11.7464 13.4539 11.696 13.4424C11.6456 13.4309 11.5976 13.4064 11.555 13.3703C11.5123 13.3342 11.476 13.2874 11.4481 13.2327C11.4202 13.178 11.4014 13.1166 11.3929 13.0523C11.3844 12.988 11.3863 12.9221 11.3986 12.8588C11.4108 12.7954 11.4331 12.736 11.4641 12.6841C11.4951 12.6322 11.5342 12.5889 11.5788 12.557C12.1793 12.0819 12.8246 11.7057 13.4994 11.4371C14.184 11.1419 14.8947 10.9559 15.6152 10.8834C15.6642 10.88 15.7132 10.8889 15.7594 10.9096C15.8057 10.9304 15.8483 10.9625 15.8848 11.0042C15.9213 11.0459 15.951 11.0963 15.9722 11.1526C15.9934 11.209 16.0056 11.27 16.0083 11.3324C16.011 11.3948 16.004 11.4572 15.9877 11.5161C15.9715 11.575 15.9462 11.6293 15.9135 11.6758C15.8808 11.7223 15.8412 11.7602 15.797 11.7872C15.7528 11.8142 15.7049 11.8298 15.6559 11.8332C15.0024 11.903 14.3579 12.0743 13.737 12.3434C13.122 12.585 12.5335 12.925 11.9857 13.3554ZM12.0182 9.6723C11.9347 9.73996 11.8335 9.76256 11.7369 9.73514C11.6403 9.70772 11.5562 9.63253 11.5031 9.5261C11.45 9.41967 11.4323 9.29073 11.4538 9.16764C11.4753 9.04454 11.5343 8.93738 11.6178 8.86973C12.2171 8.4052 12.8589 8.03607 13.5287 7.7706C14.2023 7.48328 14.9007 7.30084 15.6087 7.22726C15.7056 7.22515 15.7993 7.27095 15.8702 7.35505C15.9411 7.43915 15.9837 7.55499 15.9889 7.67823C15.9942 7.80147 15.9618 7.92252 15.8985 8.01593C15.8352 8.10934 15.7459 8.16785 15.6494 8.17915C15.005 8.24727 14.3694 8.41439 13.7565 8.67687C13.1474 8.91705 12.5636 9.25135 12.0182 9.6723ZM12.028 6.00163C11.9864 6.03513 11.9401 6.05786 11.8916 6.06854C11.8432 6.07922 11.7935 6.07763 11.7455 6.06386C11.6975 6.05009 11.6521 6.02441 11.6119 5.98829C11.5718 5.95217 11.5375 5.90632 11.5112 5.85335C11.485 5.80038 11.4671 5.74133 11.4587 5.67957C11.4503 5.61782 11.4516 5.55456 11.4624 5.49342C11.4732 5.43228 11.4934 5.37445 11.5217 5.32323C11.5501 5.27201 11.586 5.22841 11.6276 5.19491C12.226 4.73253 12.8666 4.36548 13.5352 4.102C14.2067 3.81594 14.903 3.63488 15.6087 3.56281C15.6577 3.5594 15.7067 3.56832 15.7529 3.58904C15.7992 3.60976 15.8417 3.64188 15.8782 3.68357C15.9147 3.72527 15.9444 3.77571 15.9656 3.83202C15.9868 3.88834 15.9991 3.94942 16.0018 4.01179C16.0045 4.07416 15.9975 4.13658 15.9812 4.1955C15.965 4.25442 15.9397 4.30869 15.907 4.35519C15.8743 4.4017 15.8347 4.43954 15.7905 4.46655C15.7463 4.49356 15.6984 4.50922 15.6494 4.51262C15.0073 4.58083 14.3739 4.74724 13.763 5.00826C13.155 5.24793 12.5724 5.58153 12.028 6.00163ZM8.42124 12.557C8.46587 12.5889 8.50489 12.6322 8.53589 12.6841C8.56688 12.736 8.5892 12.7954 8.60145 12.8588C8.6137 12.9221 8.61562 12.988 8.60711 13.0523C8.59859 13.1166 8.57981 13.178 8.55194 13.2327C8.52406 13.2874 8.48767 13.3342 8.44503 13.3703C8.40238 13.4064 8.35439 13.4309 8.304 13.4424C8.25361 13.4539 8.20191 13.4521 8.15209 13.4372C8.10227 13.4222 8.05538 13.3944 8.01433 13.3554C7.46856 12.9257 6.88231 12.5856 6.26954 12.3434C5.64861 12.0743 5.00418 11.903 4.3506 11.8332C4.30165 11.8296 4.25375 11.8136 4.20963 11.7864C4.16552 11.7591 4.12605 11.721 4.09348 11.6743C4.06091 11.6276 4.03588 11.5732 4.01981 11.5142C4.00375 11.4552 3.99696 11.3927 3.99985 11.3303C4.00273 11.268 4.01523 11.2069 4.03663 11.1507C4.05802 11.0945 4.0879 11.0442 4.12455 11.0027C4.1612 10.9612 4.20391 10.9293 4.25023 10.9089C4.29656 10.8884 4.3456 10.8797 4.39454 10.8834C5.11509 10.9559 5.8258 11.1419 6.51043 11.4371C7.18514 11.7057 7.83046 12.0819 8.431 12.557H8.42124ZM8.38217 8.86973C8.4657 8.93849 8.52437 9.0467 8.54528 9.17057C8.56619 9.29444 8.54762 9.42382 8.49366 9.53025C8.4397 9.63667 8.35477 9.71143 8.25756 9.73807C8.16034 9.76471 8.0588 9.74106 7.97527 9.6723C7.4299 9.25135 6.84613 8.91705 6.23699 8.67687C5.62407 8.41439 4.98849 8.24727 4.34409 8.17915C4.24502 8.17062 4.15267 8.1123 4.08735 8.01702C4.02203 7.92173 3.98909 7.79729 3.99578 7.67106C4.00247 7.54483 4.04824 7.42716 4.12302 7.34393C4.19781 7.2607 4.29547 7.21874 4.39454 7.22726C5.10256 7.30084 5.80099 7.48328 6.47462 7.7706C7.14443 8.03607 7.78615 8.4052 8.38543 8.86973H8.38217ZM8.37241 5.19491C8.41717 5.22613 8.45644 5.26869 8.48782 5.31996C8.5192 5.37123 8.54203 5.43013 8.55489 5.49305C8.56775 5.55597 8.57039 5.62157 8.56262 5.68584C8.55486 5.7501 8.53687 5.81166 8.50976 5.86674C8.48264 5.92182 8.44698 5.96925 8.40495 6.00613C8.36292 6.04301 8.31542 6.06855 8.26536 6.08118C8.21531 6.09381 8.16375 6.09327 8.11387 6.07959C8.06398 6.06591 8.01682 6.03938 7.97527 6.00163C7.43091 5.58153 6.84823 5.24793 6.24025 5.00826C5.62933 4.74724 4.99598 4.58083 4.35385 4.51262C4.3049 4.50922 4.25696 4.49356 4.21277 4.46655C4.16857 4.43954 4.12898 4.4017 4.09626 4.35519C4.06354 4.30869 4.03832 4.25442 4.02206 4.1955C4.0058 4.13658 3.9988 4.07416 4.00147 4.01179C4.00415 3.94942 4.01643 3.88834 4.03763 3.83202C4.05883 3.77571 4.08853 3.72527 4.12503 3.68357C4.16153 3.64188 4.20412 3.60976 4.25036 3.58904C4.2966 3.56832 4.3456 3.5594 4.39454 3.56281C5.10032 3.63488 5.79661 3.81594 6.46811 4.102C7.13666 4.36548 7.7773 4.73253 8.37566 5.19491H8.37241ZM17.0182 1.45165C15.8106 1.30648 14.0788 1.47654 12.9932 2.00121C11.984 2.45198 11.1188 3.31243 10.5306 4.4504V16.9473C11.3764 16.2086 12.2904 15.6054 13.252 15.1514C14.4673 14.6554 15.7447 14.4535 17.0182 14.5562V1.45165ZM9.48569 16.8187V4.43174C8.93881 3.20196 8.05502 2.38072 7.05567 1.89337C5.91635 1.33966 4.16668 1.21523 3.05828 1.41639L2.99968 14.5976C4.20899 14.5417 5.87892 14.7387 6.99057 15.2011C7.88377 15.5701 8.72579 16.1159 9.48569 16.8187Z" fill="#535763" fill-opacity="0.7"/>
</g>
<defs>
<clipPath id="clip0_69_3486">
<rect width="20" height="20" fill="white"/>
</clipPath>
</defs>
</svg>
