<svg width="20" height="20" viewBox="0 0 20 20" fill="none" xmlns="http://www.w3.org/2000/svg">
<path d="M9.48551 0.0449619C9.00083 0.205196 9.09464 0.115309 4.66605 4.53543C2.33645 6.86078 0.374263 8.85394 0.299997 8.96337C0.00293313 9.40499 -0.0830589 10.0772 0.0850165 10.5853C0.339084 11.3395 0.941028 11.7851 1.80486 11.8554L2.11365 11.8828L2.12537 15.0718C2.1371 18.1983 2.14101 18.2648 2.21918 18.4758C2.51234 19.2496 3.00093 19.7264 3.71623 19.9375C3.89994 19.9922 4.19309 20 5.8074 20C7.61323 20 7.69141 19.9961 7.81649 19.9218C7.88684 19.8788 7.97674 19.789 8.01974 19.7186C8.09401 19.5936 8.09791 19.5154 8.09791 17.108C8.09791 15.4157 8.11355 14.5755 8.14091 14.47C8.20736 14.2355 8.39107 13.9971 8.59823 13.8759L8.78194 13.7665H10.0171H11.2523L11.4438 13.8837C11.6588 14.0166 11.862 14.3175 11.905 14.5559C11.9167 14.638 11.9285 15.7987 11.9285 17.1392C11.9285 19.7772 11.9207 19.6756 12.1435 19.8828L12.249 19.9805L14.1291 19.9922C15.3877 20 16.0795 19.9883 16.2163 19.9609C16.7558 19.8476 17.3811 19.3708 17.6274 18.8862C17.901 18.339 17.8854 18.5618 17.901 15.0523L17.9127 11.8789L18.2333 11.8515C19.0189 11.7851 19.5349 11.4411 19.8593 10.7768C19.9961 10.4876 20 10.4758 20 9.99512C20 9.51051 20 9.5027 19.8515 9.19395C19.7029 8.8813 19.699 8.87739 15.4151 4.59406C11.1272 0.306808 11.1272 0.306808 10.8145 0.158298C10.5174 0.0176048 10.4783 0.00978851 10.0718 0.0019722C9.7943 -0.00584412 9.58714 0.00978851 9.48551 0.0449619Z" fill="white"/>
</svg>
