<svg width="65" height="50" viewBox="0 0 65 50" fill="none" xmlns="http://www.w3.org/2000/svg">
<g clip-path="url(#clip0_78_1294)">
<path d="M2.97355 6.4018H32.0041C31.4909 7.52939 31.0878 8.70388 30.8002 9.90892H3.52841V46.4719H55.2035V33.3176C56.4141 32.9706 57.5886 32.5078 58.7106 31.9357V47.0477C58.7133 47.4367 58.6383 47.8222 58.4899 48.1818C58.3416 48.5413 58.123 48.8676 57.8469 49.1415C57.8004 49.1933 57.7476 49.239 57.6898 49.2776C57.154 49.7582 56.4571 50.0198 55.7374 50.0105H2.95261C2.56344 50.0116 2.17793 49.9354 1.81848 49.7862C1.45904 49.637 1.13282 49.4179 0.858811 49.1415C0.305938 48.5849 -0.00451164 47.8323 -0.00488281 47.0477V9.3593C-0.00488342 8.97185 0.0715168 8.5882 0.219946 8.23031C0.368375 7.87242 0.58592 7.54731 0.860131 7.27358C1.13434 6.99986 1.45984 6.78289 1.81799 6.6351C2.17615 6.4873 2.55993 6.41158 2.94738 6.41227L2.97355 6.4018ZM49.8276 9.45294e-07C52.6948 -0.00103432 55.4978 0.848296 57.8822 2.44056C60.2666 4.03282 62.1252 6.29647 63.2229 8.94518C64.3206 11.5939 64.608 14.5087 64.049 17.3208C63.4898 20.1329 62.1093 22.716 60.0819 24.7434C58.0545 26.7708 55.4714 28.1513 52.6593 28.7104C49.8472 29.2695 46.9324 28.9821 44.2837 27.8844C41.635 26.7867 39.3713 24.9281 37.7791 22.5437C36.1868 20.1593 35.3375 17.3563 35.3385 14.4891C35.3385 10.6464 36.865 6.961 39.5823 4.24376C42.2995 1.52653 45.9849 9.45294e-07 49.8276 9.45294e-07ZM47.7338 21.4615H51.9581C52.3611 21.4615 52.7478 21.3017 53.0333 21.0172C53.3188 20.7326 53.4799 20.3465 53.4813 19.9435V15.133H56.1614C56.3705 15.1425 56.5787 15.0995 56.767 15.0081C56.9553 14.9167 57.1178 14.7797 57.2397 14.6095C57.7998 13.7668 57.0355 12.9345 56.4964 12.343C54.9627 10.6993 51.5445 7.68949 50.7751 6.80486C50.66 6.65795 50.513 6.53916 50.3452 6.45746C50.1775 6.37576 49.9933 6.3333 49.8067 6.3333C49.6201 6.3333 49.4359 6.37576 49.2681 6.45746C49.1004 6.53916 48.9534 6.65795 48.8383 6.80486C48.0845 7.71043 44.4937 10.9035 43.028 12.5209C42.5045 13.081 41.9078 13.8505 42.4313 14.6147C42.5505 14.7801 42.708 14.9141 42.8903 15.0052C43.0727 15.0964 43.2743 15.142 43.4782 15.1382H46.1739V19.9696C46.1822 20.3727 46.3499 20.7561 46.6403 21.0358C46.9308 21.3154 47.3202 21.4685 47.7233 21.4615H47.7338ZM15.1804 16.6353C16.0194 16.6342 16.8399 16.8821 17.538 17.3476C18.236 17.8131 18.7803 18.4753 19.1019 19.2502C19.4234 20.0252 19.5078 20.8781 19.3444 21.7011C19.181 22.5241 18.777 23.28 18.1837 23.8733C17.5905 24.4666 16.8345 24.8705 16.0115 25.0339C15.1886 25.1974 14.3356 25.113 13.5607 24.7914C12.7857 24.4698 12.1236 23.9256 11.6581 23.2275C11.1926 22.5295 10.9447 21.709 10.9457 20.87C10.9457 19.7469 11.3919 18.6697 12.186 17.8756C12.9802 17.0814 14.0573 16.6353 15.1804 16.6353ZM32.9777 34.8147L36.4744 28.7898C39.3247 31.4577 42.9093 33.21 46.7654 33.8201L50.4662 43.3469H8.45931V40.112L11.9874 39.934L15.5154 31.2866L17.2742 37.4634H22.5768L27.1674 25.6491L32.9777 34.8147Z" fill="#08BD80"/>
</g>
<defs>
<clipPath id="clip0_78_1294">
<rect width="64.3216" height="50" fill="white"/>
</clipPath>
</defs>
</svg>
