<svg width="20" height="20" viewBox="0 0 20 20" fill="none" xmlns="http://www.w3.org/2000/svg">
<g clip-path="url(#clip0_80_2703)">
<path fill-rule="evenodd" clip-rule="evenodd" d="M9.98793 17.6319C10.1941 17.6315 10.3958 17.6847 10.5674 17.7847C10.7391 17.8846 10.8729 18.0269 10.9521 18.1934C11.0312 18.3599 11.0521 18.5432 11.0121 18.7201C10.9721 18.8971 10.873 19.0596 10.7274 19.1872C10.5817 19.3149 10.396 19.4018 10.1938 19.4371C9.99158 19.4724 9.78195 19.4545 9.59141 19.3856C9.40087 19.3166 9.238 19.1998 9.1234 19.0499C9.00881 18.8999 8.94764 18.7237 8.94764 18.5433C8.94764 18.3019 9.05718 18.0703 9.25222 17.8994C9.44726 17.7285 9.71186 17.6323 9.98793 17.6319ZM7.3137 12.4382C8.66849 13.7696 11.7373 13.5352 12.8706 12.4382C12.587 12.1435 12.3247 11.8337 12.0853 11.5104L11.9289 11.3119C11.3731 11.6406 10.7147 11.8111 10.0438 11.8002C9.28969 11.805 8.55843 11.5741 7.98179 11.1491C7.82733 11.5528 7.60959 12.1078 7.38255 12.3731C7.36294 12.3954 7.33975 12.4151 7.3137 12.4317V12.4382ZM1.86101 14.7982C1.75628 14.8031 1.65393 14.8273 1.56064 14.8693C1.46736 14.9112 1.38526 14.9699 1.31972 15.0415C1.25418 15.1131 1.20669 15.196 1.18035 15.2848C1.154 15.3736 1.14941 15.4662 1.16686 15.5567L1.82379 20H0.148905C0.148905 17.627 -0.813224 14.7168 2.02664 13.3269C3.08368 12.8109 5.80816 12.6367 6.99547 11.9548C7.19419 11.5815 7.36271 11.1964 7.49979 10.8024C7.51282 10.7666 7.49049 10.8252 7.51096 10.7715C7.08469 10.346 6.70465 9.88662 6.37576 9.39944L5.39688 8.04365C5.03771 7.57653 4.85161 7.14847 4.83859 6.79853C4.83237 6.643 4.86873 6.48843 4.94466 6.34768C5.01845 6.20859 5.13509 6.09024 5.2815 6.00589C5.35567 5.96324 5.43491 5.92776 5.51785 5.90009C5.45012 5.08769 5.43459 4.27261 5.47132 3.45869C5.49379 3.27104 5.53425 3.08539 5.59228 2.90367C5.95518 1.79039 7.0513 0.976591 8.30932 0.595731C8.91973 0.411812 8.68338 -0.0276413 9.30495 2.79564e-05C10.7677 0.0700149 13.0269 0.893583 13.8886 1.76761C15.1019 2.99156 14.7893 4.49873 14.7483 5.99938C14.8734 6.02831 14.9871 6.08646 15.0773 6.1676C15.1674 6.24875 15.2306 6.34982 15.2601 6.45999C15.3383 6.73017 15.2601 7.11103 14.9903 7.63024C14.9903 7.63024 14.9903 7.64814 14.9735 7.65791L13.8569 9.26435C13.427 9.88447 12.9897 10.5046 12.4072 10.9831L12.3774 11.0059L12.5635 11.2338C12.7496 11.4828 12.9767 11.766 13.1814 11.9873C14.3947 12.6384 17.0615 12.8239 18.1055 13.3317C20.7109 14.6045 19.8232 17.7474 19.9665 20.0049H18.3084L18.9653 15.5616C18.9828 15.4711 18.9782 15.3785 18.9518 15.2897C18.9255 15.2009 18.878 15.118 18.8125 15.0464C18.7469 14.9748 18.6648 14.9161 18.5715 14.8741C18.4783 14.8322 18.3759 14.808 18.2712 14.8031L1.86101 14.7982ZM6.08172 6.30048C5.90698 6.29823 5.73475 6.33702 5.58298 6.41279C5.522 6.44857 5.47315 6.49804 5.44155 6.55602C5.40724 6.62863 5.39197 6.70705 5.39688 6.78551C5.40619 7.04593 5.56251 7.3861 5.86399 7.77835L6.84287 9.14065C7.23553 9.6859 7.64867 10.2425 8.15858 10.6511C8.66395 11.0826 9.3431 11.3228 10.0493 11.32C10.4164 11.326 10.7811 11.268 11.1223 11.1495C11.4636 11.0311 11.7744 10.8544 12.0369 10.6299C12.5654 10.197 12.9804 9.60615 13.3917 9.0137L14.4934 7.42516C14.6999 7.015 14.7744 6.73994 14.7279 6.58043C14.6999 6.4844 14.579 6.4372 14.3724 6.42744C14.3277 6.42744 14.2831 6.42744 14.2384 6.42744C14.187 6.4251 14.1354 6.4251 14.084 6.42744C14.0555 6.43073 14.0268 6.43073 13.9984 6.42744C13.8976 6.4314 13.7966 6.4265 13.6969 6.41279L14.0691 4.94794C11.2664 5.33369 9.1691 3.5124 6.20641 4.58336L6.42042 6.3135C6.30731 6.31919 6.19383 6.31483 6.08172 6.30048Z" fill="white"/>
</g>
<defs>
<clipPath id="clip0_80_2703">
<rect width="20" height="20" fill="white"/>
</clipPath>
</defs>
</svg>
