<svg width="20" height="20" viewBox="0 0 20 20" fill="none" xmlns="http://www.w3.org/2000/svg">
<path d="M5.69024 0H15.9388C17.0559 0 18.0712 0.339367 18.8063 0.883997C19.5425 1.42941 20 2.18243 20 3.00895V16.991C20 17.8144 19.5414 18.5663 18.8058 19.1125L18.8005 19.1164C18.0633 19.661 17.0491 20 15.9388 20H5.69024C4.57414 20 3.55778 19.661 2.82164 19.1156C2.08654 18.571 1.6285 17.8187 1.6285 16.991V14.0986H3.61003V16.991C3.61003 17.4137 3.84485 17.7992 4.22164 18.0784C4.59894 18.3579 5.11979 18.5319 5.69024 18.5319H15.9388C16.5103 18.5319 17.0311 18.3587 17.4058 18.0807C17.7847 17.8004 18.0185 17.4145 18.0185 16.991V3.00895C18.0185 2.5867 17.7836 2.20081 17.4063 1.92126C17.0301 1.6421 16.5092 1.46812 15.9388 1.46812H5.69024C5.11821 1.46812 4.59789 1.64171 4.22111 1.92087C3.84433 2.19963 3.61003 2.58553 3.61003 3.00895V5.90061H1.6285V3.00895C1.6285 2.18126 2.08549 1.42863 2.82111 0.883606C3.55673 0.338585 4.57256 0 5.69024 0ZM8.80686 6.32287L13.9266 9.90421L8.5562 13.674L7.19472 12.6137L9.88285 10.726L0 10.7386V9.27669L10.1335 9.26379L7.45277 7.38867L8.80686 6.32287Z" fill="#535763" fill-opacity="0.7"/>
</svg>
