<svg width="20" height="20" viewBox="0 0 20 20" fill="none" xmlns="http://www.w3.org/2000/svg">
<g clip-path="url(#clip0_69_3504)">
<path d="M1.90848 1.33952H3.66684V0.463867C3.6757 0.345381 3.74142 0.234049 3.85056 0.152638C3.9597 0.0712269 4.10401 0.0258856 4.25398 0.0258856C4.40396 0.0258856 4.54827 0.0712269 4.65741 0.152638C4.76655 0.234049 4.83227 0.345381 4.84113 0.463867V1.33952H7.42211V0.463867C7.42211 0.340842 7.48386 0.222856 7.59378 0.135864C7.7037 0.0488716 7.85278 0 8.00823 0C8.16368 0 8.31276 0.0488716 8.42268 0.135864C8.53259 0.222856 8.59435 0.340842 8.59435 0.463867V1.33952H11.1753V0.463867C11.1842 0.345381 11.2499 0.234049 11.359 0.152638C11.4682 0.0712269 11.6125 0.0258856 11.7625 0.0258856C11.9124 0.0258856 12.0568 0.0712269 12.1659 0.152638C12.275 0.234049 12.3408 0.345381 12.3496 0.463867V1.33952H14.9306V0.463867C14.9306 0.340842 14.9923 0.222856 15.1023 0.135864C15.2122 0.0488716 15.3613 0 15.5167 0C15.6722 0 15.8212 0.0488716 15.9312 0.135864C16.0411 0.222856 16.1028 0.340842 16.1028 0.463867V1.33952H18.0977C18.6033 1.34038 19.0879 1.49984 19.4453 1.78296C19.8026 2.06608 20.0036 2.44976 20.0041 2.84994V18.4896C20.002 18.8894 19.8005 19.2723 19.4435 19.5551C19.0865 19.838 18.6028 19.9979 18.0977 20H1.90848C1.40266 19.9991 0.917857 19.8397 0.560182 19.5567C0.202507 19.2736 0.00108664 18.8899 0 18.4896L0 2.84994C0.000544373 2.44948 0.201791 2.06555 0.559583 1.78238C0.917375 1.49922 1.40249 1.33995 1.90848 1.33952ZM4.37635 16.0384C4.22527 16.0384 4.08037 15.9909 3.97354 15.9064C3.8667 15.8218 3.80668 15.7071 3.80668 15.5876C3.80668 15.468 3.8667 15.3533 3.97354 15.2688C4.08037 15.1842 4.22527 15.1367 4.37635 15.1367H15.6298C15.7809 15.1367 15.9258 15.1842 16.0326 15.2688C16.1395 15.3533 16.1995 15.468 16.1995 15.5876C16.1995 15.7071 16.1395 15.8218 16.0326 15.9064C15.9258 15.9909 15.7809 16.0384 15.6298 16.0384H4.37635ZM4.37635 13.0664C4.23145 13.0595 4.09534 13.0091 3.99583 12.9254C3.89631 12.8418 3.8409 12.7313 3.8409 12.6164C3.8409 12.5015 3.89631 12.3909 3.99583 12.3073C4.09534 12.2237 4.23145 12.1732 4.37635 12.1663H15.6298C15.7747 12.1732 15.9108 12.2237 16.0103 12.3073C16.1099 12.3909 16.1653 12.5015 16.1653 12.6164C16.1653 12.7313 16.1099 12.8418 16.0103 12.9254C15.9108 13.0091 15.7747 13.0595 15.6298 13.0664H4.37635ZM4.37635 10.096C4.22527 10.096 4.08037 10.0485 3.97354 9.96398C3.8667 9.87943 3.80668 9.76475 3.80668 9.64518C3.80668 9.52561 3.8667 9.41094 3.97354 9.32639C4.08037 9.24184 4.22527 9.19434 4.37635 9.19434H15.6298C15.7699 9.20592 15.8996 9.25816 15.9938 9.34097C16.0881 9.42377 16.1403 9.53128 16.1403 9.64274C16.1403 9.7542 16.0881 9.86171 15.9938 9.94452C15.8996 10.0273 15.7699 10.0796 15.6298 10.0911L4.37635 10.096ZM4.37635 7.12402C4.23145 7.11712 4.09534 7.06671 3.99583 6.98307C3.89631 6.89943 3.8409 6.78888 3.8409 6.67399C3.8409 6.55911 3.89631 6.44856 3.99583 6.36492C4.09534 6.28128 4.23145 6.23086 4.37635 6.22396H15.6298C15.7747 6.23086 15.9108 6.28128 16.0103 6.36492C16.1099 6.44856 16.1653 6.55911 16.1653 6.67399C16.1653 6.78888 16.1099 6.89943 16.0103 6.98307C15.9108 7.06671 15.7747 7.11712 15.6298 7.12402H4.37635ZM16.1111 2.24121V3.11686C16.1111 3.23989 16.0493 3.35787 15.9394 3.44487C15.8295 3.53186 15.6804 3.58073 15.5249 3.58073C15.3695 3.58073 15.2204 3.53186 15.1105 3.44487C15.0006 3.35787 14.9388 3.23989 14.9388 3.11686V2.23958H12.3496V3.11523C12.3408 3.23372 12.275 3.34505 12.1659 3.42646C12.0568 3.50787 11.9124 3.55322 11.7625 3.55322C11.6125 3.55322 11.4682 3.50787 11.359 3.42646C11.2499 3.34505 11.1842 3.23372 11.1753 3.11523V2.23958H8.59435V3.11523C8.59435 3.23826 8.53259 3.35625 8.42268 3.44324C8.31276 3.53023 8.16368 3.5791 8.00823 3.5791C7.85278 3.5791 7.7037 3.53023 7.59378 3.44324C7.48386 3.35625 7.42211 3.23826 7.42211 3.11523V2.23958H4.84113V3.11523C4.83227 3.23372 4.76655 3.34505 4.65741 3.42646C4.54827 3.50787 4.40396 3.55322 4.25398 3.55322C4.10401 3.55322 3.9597 3.50787 3.85056 3.42646C3.74142 3.34505 3.6757 3.23372 3.66684 3.11523V2.23958H1.90848C1.8075 2.23942 1.70749 2.25517 1.61428 2.28591C1.52106 2.31664 1.43651 2.36176 1.36555 2.41862C1.29355 2.47511 1.23632 2.54228 1.19715 2.61629C1.15798 2.6903 1.13763 2.7697 1.13728 2.84994V18.4896C1.13942 18.6509 1.22136 18.8052 1.36552 18.9193C1.50969 19.0334 1.70461 19.0982 1.90848 19.0999H18.0977C18.3017 19.0991 18.497 19.0344 18.6411 18.9201C18.7852 18.8058 18.8663 18.651 18.8668 18.4896V2.84994C18.8663 2.68847 18.7852 2.53372 18.6411 2.4194C18.497 2.30507 18.3017 2.24044 18.0977 2.23958L16.1111 2.24121Z" fill="#535763" fill-opacity="0.7"/>
</g>
<defs>
<clipPath id="clip0_69_3504">
<rect width="20" height="20" fill="white"/>
</clipPath>
</defs>
</svg>
