<svg width="20" height="20" viewBox="0 0 20 20" fill="none" xmlns="http://www.w3.org/2000/svg">
<mask id="path-1-inside-1_78_1147" fill="white">
<path d="M8.4752 11.199C8.94956 11.707 9.46773 12.172 10.0237 12.5884C10.6249 13.0371 11.2621 13.4352 11.9287 13.7785L11.9564 13.7588C12.0052 13.7196 12.0606 13.6689 12.1192 13.6117C12.1778 13.5545 12.2169 13.5055 12.269 13.4483L12.453 13.208C12.4692 13.1829 12.4878 13.1593 12.5084 13.1377C13.2102 12.2092 14.0845 11.0927 15.4913 11.7466C15.5205 11.7587 15.5488 11.7729 15.576 11.7891C16.7158 12.4658 17.8849 13.1213 19.0344 13.785C19.063 13.8 19.0903 13.8175 19.1158 13.8373C19.4006 14.0314 19.6292 14.2976 19.7785 14.6089C19.9262 14.9295 20.0018 15.2789 20 15.6322C19.9965 15.9702 19.945 16.306 19.8469 16.6293C19.7437 16.9746 19.6016 17.3069 19.4236 17.6199C19.2038 18.0101 18.9178 18.3586 18.5785 18.6498C18.2582 18.924 17.9001 19.1503 17.5153 19.3216H17.5071C17.1575 19.48 16.7946 19.6069 16.4227 19.7009C16.0616 19.7933 15.6958 19.8665 15.3269 19.9199C14.7627 20.0047 14.1904 20.0222 13.6221 19.9722C13.0602 19.922 12.5052 19.8124 11.9662 19.6453C11.4134 19.4694 10.875 19.2508 10.3558 18.9914C9.78916 18.7107 9.23702 18.4014 8.70152 18.0646L8.56475 17.9796C8.06488 17.6673 7.52592 17.3257 6.98046 16.9219C5.85549 16.0655 4.81906 15.0979 3.88678 14.0335C2.9826 13.0074 2.19106 11.8867 1.52581 10.6906C0.933678 9.63631 0.495023 8.50233 0.223212 7.32317C-0.0211493 6.27466 -0.0653494 5.18916 0.0929515 4.12413C0.189059 3.49304 0.388208 2.88219 0.682379 2.31619C0.957011 1.78878 1.33599 1.3232 1.7961 0.947972C2.25199 0.58106 2.77952 0.314307 3.34457 0.164967C3.94188 0.0118184 4.56127 -0.0352064 5.17473 0.0260209C5.33819 0.0365673 5.49625 0.0888994 5.63389 0.178045C5.76906 0.265755 5.88085 0.385279 5.95955 0.526229L8.15117 4.25163C8.34423 4.50163 8.47035 4.79707 8.51753 5.10983C8.55652 5.42095 8.51036 5.73685 8.38401 6.02361C8.27965 6.26098 8.13657 6.47921 7.96067 6.6693C7.78667 6.85769 7.59471 7.02851 7.38752 7.17932C7.26866 7.2823 7.11886 7.39183 6.96255 7.50625L6.94789 7.51769C6.76237 7.64553 6.58658 7.78705 6.42197 7.94107C6.35767 7.99324 6.30731 8.06065 6.27543 8.13723C6.27543 8.15521 6.29008 8.13723 6.30636 8.16502L6.36172 8.25166C6.54572 8.541 6.90068 9.09351 7.30611 9.68036C7.66289 10.2123 8.05339 10.7206 8.4752 11.2022V11.199ZM9.36259 13.4711C8.75691 13.0169 8.19143 12.511 7.67247 11.9591C7.21142 11.4382 6.78602 10.8866 6.39917 10.3081C5.99537 9.72286 5.62413 9.14582 5.43199 8.83687L5.38477 8.76658C5.30311 8.66581 5.24221 8.54976 5.20559 8.42517C5.16898 8.30057 5.15738 8.16992 5.17147 8.04079C5.21464 7.69588 5.38062 7.37829 5.63878 7.14663C5.84436 6.95094 6.06484 6.77167 6.29822 6.61046C6.42848 6.51564 6.55223 6.4241 6.66458 6.32766L6.69877 6.3015C6.85683 6.19051 7.00258 6.06282 7.13352 5.92063C7.22739 5.81986 7.30437 5.70448 7.36147 5.57898C7.40846 5.47687 7.42703 5.3639 7.4152 5.25205C7.3909 5.12509 7.33487 5.00641 7.25238 4.90713C7.23227 4.8841 7.21479 4.85888 7.20027 4.83194L5.03144 1.12288C4.56115 1.07994 4.087 1.11809 3.62952 1.23567C3.21319 1.34487 2.8247 1.54155 2.48974 1.81271C2.14644 2.09394 1.86341 2.44203 1.6577 2.83601C1.42166 3.2939 1.26214 3.7876 1.18551 4.2974C1.04829 5.22262 1.08696 6.16557 1.29949 7.07633C1.55129 8.15275 1.95482 9.18757 2.49788 10.1495C3.12302 11.2727 3.86769 12.3245 4.71882 13.2864C5.60216 14.2942 6.58404 15.2104 7.64967 16.0212C8.13815 16.3923 8.66896 16.7209 9.15743 17.0249L9.29583 17.1132C9.79713 17.429 10.3139 17.7192 10.8443 17.9828C11.3117 18.2167 11.7968 18.4129 12.2951 18.5697C12.7596 18.7161 13.2383 18.8125 13.7231 18.8574C14.2062 18.899 14.6926 18.8836 15.1722 18.8116C15.5011 18.7652 15.8272 18.7008 16.1491 18.6187C16.458 18.5412 16.7593 18.4361 17.0496 18.3049H17.0642C17.3537 18.1761 17.6235 18.0065 17.8653 17.8014C18.107 17.5936 18.3108 17.3453 18.4678 17.0674C18.6042 16.8282 18.7134 16.5743 18.7934 16.3106C18.8607 16.0884 18.8968 15.8578 18.9009 15.6256C18.905 15.4375 18.8666 15.2508 18.7885 15.0797C18.7227 14.9408 18.6209 14.8222 18.4938 14.7364C17.6129 14.1038 16.0661 13.3322 15.0745 12.7568L15.0273 12.7323L15.0468 12.7421L15.0273 12.7323C14.4167 12.4593 13.8501 13.1818 13.3893 13.7915L13.3616 13.8308C13.2818 13.937 13.1988 14.04 13.1336 14.1283C13.0685 14.2166 12.9708 14.3244 12.9057 14.3898C12.818 14.4777 12.725 14.5602 12.6272 14.6367C12.517 14.7202 12.3959 14.7884 12.2674 14.8394C12.1458 14.8874 12.0153 14.9086 11.8848 14.9015C11.7724 14.8938 11.6622 14.8667 11.5591 14.8214L11.507 14.7985C10.7561 14.4177 10.0388 13.9736 9.36259 13.4711Z"/>
</mask>
<path d="M8.4752 11.199C8.94956 11.707 9.46773 12.172 10.0237 12.5884C10.6249 13.0371 11.2621 13.4352 11.9287 13.7785L11.9564 13.7588C12.0052 13.7196 12.0606 13.6689 12.1192 13.6117C12.1778 13.5545 12.2169 13.5055 12.269 13.4483L12.453 13.208C12.4692 13.1829 12.4878 13.1593 12.5084 13.1377C13.2102 12.2092 14.0845 11.0927 15.4913 11.7466C15.5205 11.7587 15.5488 11.7729 15.576 11.7891C16.7158 12.4658 17.8849 13.1213 19.0344 13.785C19.063 13.8 19.0903 13.8175 19.1158 13.8373C19.4006 14.0314 19.6292 14.2976 19.7785 14.6089C19.9262 14.9295 20.0018 15.2789 20 15.6322C19.9965 15.9702 19.945 16.306 19.8469 16.6293C19.7437 16.9746 19.6016 17.3069 19.4236 17.6199C19.2038 18.0101 18.9178 18.3586 18.5785 18.6498C18.2582 18.924 17.9001 19.1503 17.5153 19.3216H17.5071C17.1575 19.48 16.7946 19.6069 16.4227 19.7009C16.0616 19.7933 15.6958 19.8665 15.3269 19.9199C14.7627 20.0047 14.1904 20.0222 13.6221 19.9722C13.0602 19.922 12.5052 19.8124 11.9662 19.6453C11.4134 19.4694 10.875 19.2508 10.3558 18.9914C9.78916 18.7107 9.23702 18.4014 8.70152 18.0646L8.56475 17.9796C8.06488 17.6673 7.52592 17.3257 6.98046 16.9219C5.85549 16.0655 4.81906 15.0979 3.88678 14.0335C2.9826 13.0074 2.19106 11.8867 1.52581 10.6906C0.933678 9.63631 0.495023 8.50233 0.223212 7.32317C-0.0211493 6.27466 -0.0653494 5.18916 0.0929515 4.12413C0.189059 3.49304 0.388208 2.88219 0.682379 2.31619C0.957011 1.78878 1.33599 1.3232 1.7961 0.947972C2.25199 0.58106 2.77952 0.314307 3.34457 0.164967C3.94188 0.0118184 4.56127 -0.0352064 5.17473 0.0260209C5.33819 0.0365673 5.49625 0.0888994 5.63389 0.178045C5.76906 0.265755 5.88085 0.385279 5.95955 0.526229L8.15117 4.25163C8.34423 4.50163 8.47035 4.79707 8.51753 5.10983C8.55652 5.42095 8.51036 5.73685 8.38401 6.02361C8.27965 6.26098 8.13657 6.47921 7.96067 6.6693C7.78667 6.85769 7.59471 7.02851 7.38752 7.17932C7.26866 7.2823 7.11886 7.39183 6.96255 7.50625L6.94789 7.51769C6.76237 7.64553 6.58658 7.78705 6.42197 7.94107C6.35767 7.99324 6.30731 8.06065 6.27543 8.13723C6.27543 8.15521 6.29008 8.13723 6.30636 8.16502L6.36172 8.25166C6.54572 8.541 6.90068 9.09351 7.30611 9.68036C7.66289 10.2123 8.05339 10.7206 8.4752 11.2022V11.199ZM9.36259 13.4711C8.75691 13.0169 8.19143 12.511 7.67247 11.9591C7.21142 11.4382 6.78602 10.8866 6.39917 10.3081C5.99537 9.72286 5.62413 9.14582 5.43199 8.83687L5.38477 8.76658C5.30311 8.66581 5.24221 8.54976 5.20559 8.42517C5.16898 8.30057 5.15738 8.16992 5.17147 8.04079C5.21464 7.69588 5.38062 7.37829 5.63878 7.14663C5.84436 6.95094 6.06484 6.77167 6.29822 6.61046C6.42848 6.51564 6.55223 6.4241 6.66458 6.32766L6.69877 6.3015C6.85683 6.19051 7.00258 6.06282 7.13352 5.92063C7.22739 5.81986 7.30437 5.70448 7.36147 5.57898C7.40846 5.47687 7.42703 5.3639 7.4152 5.25205C7.3909 5.12509 7.33487 5.00641 7.25238 4.90713C7.23227 4.8841 7.21479 4.85888 7.20027 4.83194L5.03144 1.12288C4.56115 1.07994 4.087 1.11809 3.62952 1.23567C3.21319 1.34487 2.8247 1.54155 2.48974 1.81271C2.14644 2.09394 1.86341 2.44203 1.6577 2.83601C1.42166 3.2939 1.26214 3.7876 1.18551 4.2974C1.04829 5.22262 1.08696 6.16557 1.29949 7.07633C1.55129 8.15275 1.95482 9.18757 2.49788 10.1495C3.12302 11.2727 3.86769 12.3245 4.71882 13.2864C5.60216 14.2942 6.58404 15.2104 7.64967 16.0212C8.13815 16.3923 8.66896 16.7209 9.15743 17.0249L9.29583 17.1132C9.79713 17.429 10.3139 17.7192 10.8443 17.9828C11.3117 18.2167 11.7968 18.4129 12.2951 18.5697C12.7596 18.7161 13.2383 18.8125 13.7231 18.8574C14.2062 18.899 14.6926 18.8836 15.1722 18.8116C15.5011 18.7652 15.8272 18.7008 16.1491 18.6187C16.458 18.5412 16.7593 18.4361 17.0496 18.3049H17.0642C17.3537 18.1761 17.6235 18.0065 17.8653 17.8014C18.107 17.5936 18.3108 17.3453 18.4678 17.0674C18.6042 16.8282 18.7134 16.5743 18.7934 16.3106C18.8607 16.0884 18.8968 15.8578 18.9009 15.6256C18.905 15.4375 18.8666 15.2508 18.7885 15.0797C18.7227 14.9408 18.6209 14.8222 18.4938 14.7364C17.6129 14.1038 16.0661 13.3322 15.0745 12.7568L15.0273 12.7323L15.0468 12.7421L15.0273 12.7323C14.4167 12.4593 13.8501 13.1818 13.3893 13.7915L13.3616 13.8308C13.2818 13.937 13.1988 14.04 13.1336 14.1283C13.0685 14.2166 12.9708 14.3244 12.9057 14.3898C12.818 14.4777 12.725 14.5602 12.6272 14.6367C12.517 14.7202 12.3959 14.7884 12.2674 14.8394C12.1458 14.8874 12.0153 14.9086 11.8848 14.9015C11.7724 14.8938 11.6622 14.8667 11.5591 14.8214L11.507 14.7985C10.7561 14.4177 10.0388 13.9736 9.36259 13.4711Z" fill="#08BD80" stroke="#08BD80" stroke-width="2" mask="url(#path-1-inside-1_78_1147)"/>
</svg>
