<svg width="20" height="20" viewBox="0 0 20 20" fill="none" xmlns="http://www.w3.org/2000/svg">
<path fill-rule="evenodd" clip-rule="evenodd" d="M9.58757 0.000845661L11.036 0.0461582C11.713 0.0672519 12.2497 0.638736 12.2286 1.3153L12.1868 2.65631C12.8383 2.87389 13.4505 3.17585 14.0102 3.54889L15.0383 2.58327C15.5321 2.1196 16.3153 2.14381 16.779 2.63756L17.7712 3.69381C18.2352 4.18756 18.2102 4.97116 17.7169 5.43483L16.6126 6.47233C16.9027 7.04211 17.1207 7.64586 17.2614 8.2696L18.8071 8.31803C19.4841 8.33913 20.0204 8.91061 19.9993 9.58757L19.954 11.036C19.9329 11.713 19.3614 12.2497 18.6848 12.2286L17.1247 12.1798C16.9426 12.787 16.6859 13.3693 16.3606 13.9133L17.4169 15.038C17.8805 15.5317 17.8563 16.3153 17.3626 16.779L16.3063 17.7712C15.8126 18.2348 15.029 18.2102 14.5653 17.7169L13.5673 16.6544C12.9888 16.9858 12.3697 17.2404 11.7255 17.4118L11.6821 18.8071C11.661 19.4837 11.0891 20.0204 10.4126 19.9993L8.96413 19.954C8.28757 19.9329 7.75046 19.3618 7.77155 18.6848L7.811 17.4243C7.1151 17.2447 6.44799 16.9679 5.82936 16.602L4.96217 17.4169C4.46842 17.8805 3.68483 17.8559 3.22116 17.3626L2.22897 16.3063C1.7653 15.813 1.78952 15.029 2.28327 14.5653L3.07428 13.8223C2.69297 13.165 2.4115 12.4546 2.23913 11.7145L1.19303 11.6817C0.51647 11.6606 -0.0202485 11.0891 0.000845243 10.4126L0.0461577 8.96413C0.0672515 8.28757 0.638345 7.75006 1.3153 7.77116L2.34655 7.80358C2.56374 7.05905 2.8903 6.36256 3.30631 5.73131L2.58327 4.96178C2.1196 4.46842 2.1442 3.68444 2.63756 3.22116L3.69381 2.22897C4.18717 1.7653 4.97077 1.78952 5.43483 2.28327L6.21569 3.11452C6.86616 2.77875 7.56137 2.5379 8.28014 2.39928L8.31803 1.19303C8.33913 0.51608 8.91061 -0.0202481 9.58757 0.000845661ZM10.436 9.05827C10.6573 9.1611 10.8355 9.33832 10.9395 9.55905L12.5161 9.55944C12.4247 9.42546 12.4247 9.24264 12.5294 9.10749C12.659 8.93952 12.9005 8.90827 13.0684 9.03796L13.9176 9.69382C13.9638 9.72938 14.0012 9.77499 14.027 9.82717C14.0529 9.87936 14.0665 9.93675 14.0669 9.99499V10.0051C14.0665 10.0634 14.0528 10.1209 14.027 10.1731C14.0011 10.2253 13.9637 10.271 13.9176 10.3067L13.0684 10.9622C12.9005 11.0919 12.659 11.061 12.5294 10.893C12.4798 10.8288 12.4518 10.7505 12.4494 10.6694C12.447 10.5883 12.4704 10.5085 12.5161 10.4415L10.9391 10.4411C10.7735 10.7934 10.4153 11.038 9.99967 11.038C9.42663 11.038 8.96178 10.5731 8.96178 10.0001C8.96178 9.58757 9.2028 9.23092 9.55163 9.06374L9.56374 7.07663C9.42663 7.1735 9.23678 7.17233 9.10007 7.06139C8.93522 6.92741 8.91022 6.68561 9.04382 6.52116L9.71842 5.68678C9.75307 5.64396 9.79655 5.60912 9.8459 5.58464C9.89525 5.56017 9.9493 5.54664 10.0044 5.54499H10.0133C10.1344 5.54264 10.254 5.59694 10.3305 5.70163L10.9673 6.5653C11.0926 6.736 11.0559 6.97702 10.8848 7.10241C10.8218 7.14841 10.7463 7.1742 10.6684 7.17637C10.5904 7.17853 10.5136 7.15696 10.4481 7.11452L10.436 9.05827ZM16.0821 10.4688H15.588C15.329 10.4688 15.1192 10.2587 15.1192 10.0001C15.1192 9.74147 15.329 9.53131 15.588 9.53131L16.0821 9.53171C15.8567 6.55514 13.4837 4.14889 10.4704 3.91842V4.41217C10.4704 4.67194 10.2598 4.88288 10.0001 4.88288C9.7403 4.88288 9.52975 4.67194 9.52975 4.41217V3.91803C6.55397 4.1446 4.14889 6.51725 3.91842 9.52975H4.41217C4.67194 9.52975 4.88249 9.74069 4.88249 10.0001C4.88249 10.2598 4.67194 10.4708 4.41217 10.4708H3.91842C4.14499 13.4462 6.51725 15.8508 9.52975 16.0817V15.588C9.52975 15.3282 9.7403 15.1176 10.0001 15.1176C10.2598 15.1176 10.4704 15.3282 10.4704 15.588V16.0821C13.4466 15.8555 15.852 13.4821 16.0821 10.4688Z" fill="white"/>
</svg>
