<svg width="16" height="16" viewBox="0 0 16 16" fill="none" xmlns="http://www.w3.org/2000/svg">
<path d="M12.0207 11.078L14.876 13.9327L13.9327 14.876L11.078 12.0207C10.0158 12.8722 8.69468 13.3353 7.33334 13.3333C4.02134 13.3333 1.33334 10.6453 1.33334 7.33334C1.33334 4.02134 4.02134 1.33334 7.33334 1.33334C10.6453 1.33334 13.3333 4.02134 13.3333 7.33334C13.3353 8.69468 12.8722 10.0158 12.0207 11.078ZM10.6833 10.5833C11.5294 9.71327 12.0019 8.54696 12 7.33334C12 4.75468 9.91134 2.66668 7.33334 2.66668C4.75468 2.66668 2.66668 4.75468 2.66668 7.33334C2.66668 9.91134 4.75468 12 7.33334 12C8.54696 12.0019 9.71327 11.5294 10.5833 10.6833L10.6833 10.5833Z" fill="#444444" fill-opacity="0.5"/>
</svg>
