<svg width="50" height="50" viewBox="0 0 50 50" fill="none" xmlns="http://www.w3.org/2000/svg">
<path d="M39.0682 43.1906H30.9869H28.8108H28.3408V32.3508H31.886C32.785 32.3508 33.3163 31.3291 32.785 30.5936L25.8888 21.0513C25.4495 20.4383 24.5403 20.4383 24.1009 21.0513L17.2047 30.5936C16.6735 31.3291 17.1945 32.3508 18.1038 32.3508H21.649V43.1906H21.179H19.0029H9.63425C4.27054 42.8943 0 37.878 0 32.4428C0 28.6933 2.0331 25.424 5.047 23.6565C4.77115 22.9107 4.62812 22.1138 4.62812 21.276C4.62812 17.4448 7.72374 14.3492 11.555 14.3492C12.3825 14.3492 13.1794 14.4922 13.9252 14.7681C16.1422 10.0684 20.9236 6.80933 26.4814 6.80933C33.6739 6.81954 39.5995 12.3263 40.2738 19.3451C45.801 20.2952 50 25.4137 50 31.2065C50 37.3978 45.1778 42.7615 39.0682 43.1906Z" fill="#08BD80"/>
</svg>
